<svg xmlns="http://www.w3.org/2000/svg" width="12.001" height="12.362" viewBox="0 0 12.001 12.362">
  <g id="svg-save" transform="translate(-448 -523.661)">
    <g id="save" transform="translate(461 515.667)">
      <path id="Path_13271" data-name="Path 13271" d="M7.955,7.112,5.478,9.589m0,0L3,7.112M5.478,9.589V1.333" transform="translate(-12.478 7.261)" fill="none" stroke="#ebedef" stroke-linecap="round" stroke-linejoin="round" stroke-width="1.2"/>
    </g>
    <g id="Group_6095" data-name="Group 6095" transform="translate(0)">
      <path id="Path_13272" data-name="Path 13272" d="M2926.429-2846h-5.573a.86.86,0,0,1-.857-.857v-7.747a.859.859,0,0,1,.857-.856h1.572a.859.859,0,0,1,.856.856.859.859,0,0,1-.856.857h-.715v6.034h8.575v-6.034h-.715a.86.86,0,0,1-.857-.857.859.859,0,0,1,.857-.856h1.571a.859.859,0,0,1,.857.856v7.747a.86.86,0,0,1-.857.857Z" transform="translate(-2472 3382.022)" fill="#92b1d9"/>
    </g>
  </g>
</svg>
