<svg xmlns="http://www.w3.org/2000/svg" width="237.693" height="101.073" viewBox="0 0 237.693 101.073">
  <g id="logo_full" transform="translate(-1027.787 -870.057)">
    <path id="Path_24558" data-name="Path 24558" d="M17.4-33.48a13.078,13.078,0,0,1,7.68,2.22,11.948,11.948,0,0,1,4.5,5.88v-7.68h6.84V0H29.58V-7.68a11.948,11.948,0,0,1-4.5,5.88A13.078,13.078,0,0,1,17.4.42,14.659,14.659,0,0,1,9.69-1.62,13.942,13.942,0,0,1,4.38-7.5a20.034,20.034,0,0,1-1.92-9.06,19.89,19.89,0,0,1,1.92-9,13.942,13.942,0,0,1,5.31-5.88A14.659,14.659,0,0,1,17.4-33.48Zm2.1,6a9.521,9.521,0,0,0-7.29,2.91q-2.73,2.91-2.73,8.01t2.73,8.01A9.521,9.521,0,0,0,19.5-5.64a9.934,9.934,0,0,0,5.16-1.35,9.59,9.59,0,0,0,3.6-3.81,12,12,0,0,0,1.32-5.76,12.05,12.05,0,0,0-1.32-5.73,9.542,9.542,0,0,0-3.6-3.84A9.934,9.934,0,0,0,19.5-27.48Zm44.1-6a14.659,14.659,0,0,1,7.71,2.04,13.942,13.942,0,0,1,5.31,5.88,19.89,19.89,0,0,1,1.92,9A20.034,20.034,0,0,1,76.62-7.5a13.942,13.942,0,0,1-5.31,5.88A14.659,14.659,0,0,1,63.6.42,13.078,13.078,0,0,1,55.92-1.8a11.61,11.61,0,0,1-4.44-5.88V0H44.64V-44.4h6.84v19.02a11.61,11.61,0,0,1,4.44-5.88A13.078,13.078,0,0,1,63.6-33.48Zm-2.1,6a9.934,9.934,0,0,0-5.16,1.35,9.542,9.542,0,0,0-3.6,3.84,12.05,12.05,0,0,0-1.32,5.73,12,12,0,0,0,1.32,5.76,9.59,9.59,0,0,0,3.6,3.81A9.934,9.934,0,0,0,61.5-5.64a9.618,9.618,0,0,0,7.32-2.91q2.76-2.91,2.76-8.01a11.19,11.19,0,0,0-2.76-7.98A9.567,9.567,0,0,0,61.5-27.48Zm42.6-6a14.659,14.659,0,0,1,7.71,2.04,13.942,13.942,0,0,1,5.31,5.88,19.89,19.89,0,0,1,1.92,9,20.034,20.034,0,0,1-1.92,9.06,13.942,13.942,0,0,1-5.31,5.88A14.659,14.659,0,0,1,104.1.42,13.078,13.078,0,0,1,96.42-1.8a11.61,11.61,0,0,1-4.44-5.88V0H85.14V-44.4h6.84v19.02a11.61,11.61,0,0,1,4.44-5.88A13.078,13.078,0,0,1,104.1-33.48Zm-2.1,6a9.934,9.934,0,0,0-5.16,1.35,9.542,9.542,0,0,0-3.6,3.84,12.05,12.05,0,0,0-1.32,5.73,12,12,0,0,0,1.32,5.76,9.59,9.59,0,0,0,3.6,3.81A9.934,9.934,0,0,0,102-5.64a9.618,9.618,0,0,0,7.32-2.91q2.76-2.91,2.76-8.01a11.19,11.19,0,0,0-2.76-7.98A9.567,9.567,0,0,0,102-27.48ZM132.48-44.4V0h-6.84V-44.4Zm39,26.28a15.876,15.876,0,0,1-.24,2.94H145.8q.18,5.1,2.82,7.56a9.229,9.229,0,0,0,6.54,2.46,9.515,9.515,0,0,0,5.79-1.74,7.183,7.183,0,0,0,2.91-4.62h7.32a14.23,14.23,0,0,1-2.76,6.18,14.266,14.266,0,0,1-5.46,4.23,17.892,17.892,0,0,1-7.5,1.53,17.257,17.257,0,0,1-8.49-2.04,14.51,14.51,0,0,1-5.79-5.88,18.6,18.6,0,0,1-2.1-9.06,18.47,18.47,0,0,1,2.1-9,14.51,14.51,0,0,1,5.79-5.88,17.257,17.257,0,0,1,8.49-2.04,17.247,17.247,0,0,1,8.49,2.01,13.983,13.983,0,0,1,5.58,5.52A15.847,15.847,0,0,1,171.48-18.12Zm-6.9-.18a10.166,10.166,0,0,0-1.11-5.43,7.716,7.716,0,0,0-3.36-3.24,10.372,10.372,0,0,0-4.65-1.05,9.6,9.6,0,0,0-6.72,2.46q-2.7,2.46-2.94,7.26Z" transform="translate(1094 970.71)" fill="#bac9d8"/>
    <g id="logo" transform="translate(174 -78)">
      <g id="Group_12216" data-name="Group 12216" transform="translate(321.208 25.414)">
        <g id="Group_12213" data-name="Group 12213" transform="translate(545.916 922.644)">
          <path id="Subtraction_15" data-name="Subtraction 15" d="M24.485,101.073A24.7,24.7,0,0,1,0,76.212H0C0,67.983.049,56.553.049,56.44A51.281,51.281,0,0,0,9.72,64.15l.076.05V76.212a14.906,14.906,0,0,0,14.691,15.08,14.268,14.268,0,0,0,5.146-.954l6.212,3.225-1.092-6.573a15.16,15.16,0,0,0,4.425-10.777c0-6.514-4.533-11.926-8.336-15.319a45.981,45.981,0,0,0-8.55-5.988,53.448,53.448,0,0,1-11.526-8.213,38.338,38.338,0,0,1-7.424-9.337A25.719,25.719,0,0,1,0,24.861,24.7,24.7,0,0,1,24.485,0,24.7,24.7,0,0,1,48.97,24.861c0,6.714-2.675,13.323-7.736,19.114l-.11.125L38.6,46.418l-8.49-5.162,3.851-3.837c3.462-4,5.217-8.225,5.217-12.558A14.906,14.906,0,0,0,24.485,9.781,14.906,14.906,0,0,0,9.793,24.861a17.091,17.091,0,0,0,3.245,9.625l-2.2,6.223,5.882-1.848a45.558,45.558,0,0,0,9.954,7.305,42.32,42.32,0,0,1,3.911,2.281A53.84,53.84,0,0,1,38.2,54.38a38.342,38.342,0,0,1,7.425,9.337,25.716,25.716,0,0,1,3.34,12.495A24.7,24.7,0,0,1,24.485,101.073Z" transform="translate(0 0)" fill="#bac9d8"/>
        </g>
        <g id="Group_12214" data-name="Group 12214" transform="translate(563.437 945.612)">
          <circle id="Ellipse_1611" data-name="Ellipse 1611" cx="1.348" cy="1.348" r="1.348" transform="translate(0)" fill="#bac9d8"/>
          <circle id="Ellipse_1612" data-name="Ellipse 1612" cx="1.348" cy="1.348" r="1.348" transform="translate(5.391)" fill="#bac9d8"/>
          <circle id="Ellipse_1613" data-name="Ellipse 1613" cx="1.348" cy="1.348" r="1.348" transform="translate(10.781)" fill="#bac9d8"/>
        </g>
      </g>
      <g id="Group_12220" data-name="Group 12220" transform="translate(-5.621 0.057)">
        <rect id="Rectangle_1084" data-name="Rectangle 1084" width="35.031" height="9" transform="translate(860.285 948)" fill="#bac9d8"/>
        <path id="Path_24557" data-name="Path 24557" d="M0,0H36V9H0Z" transform="translate(859.408 1040)" fill="#bac9d8"/>
      </g>
    </g>
  </g>
</svg>
