<svg xmlns="http://www.w3.org/2000/svg" width="12.5" height="12.5" viewBox="0 0 12.5 12.5">
  <g id="svg-newtab" transform="translate(-435 -522.5)">
    <path id="svg-enlarge" d="M1.667,6.239v6.572a.859.859,0,0,0,.856.856H8.1c.471,0,.471-1.713,0-1.713H3.38V6.239ZM3.38,7.1V3.38H6.1a.856.856,0,1,0,0-1.713H2.523a.859.859,0,0,0-.856.856V7.1Zm8.574,4.856H7.239c-.471,0-.471,1.713,0,1.713h5.572a.859.859,0,0,0,.856-.856V9.239a.856.856,0,0,0-1.713,0Z" transform="translate(433.333 521.333)" fill="#92b1d9"/>
    <path id="plus" d="M6.631,3.6H5.116V2.087a.758.758,0,0,0-1.514,0L3.63,3.6H2.087a.758.758,0,0,0,0,1.514l1.541-.027L3.6,6.631a.758.758,0,0,0,1.514,0V5.089l1.515.027a.758.758,0,0,0,0-1.514Z" transform="translate(440.141 521.141)" fill="#ebedef"/>
  </g>
</svg>
