<svg xmlns="http://www.w3.org/2000/svg" width="12" height="12" viewBox="0 0 12 12">
  <path id="svg-enlarge" d="M2.523,9.382a.859.859,0,0,0-.856.856v2.572a.859.859,0,0,0,.856.856H5.1a.856.856,0,0,0,0-1.713H3.38V10.239A.859.859,0,0,0,2.523,9.382Zm0-3.428A.859.859,0,0,0,3.38,5.1V3.38H5.1a.856.856,0,1,0,0-1.713H2.523a.859.859,0,0,0-.856.856V5.1a.859.859,0,0,0,.856.856Zm9.431,6H10.239a.856.856,0,0,0,0,1.713h2.572a.859.859,0,0,0,.856-.856V10.239a.856.856,0,0,0-1.713,0ZM9.382,2.523a.859.859,0,0,0,.856.856h1.715V5.1a.856.856,0,0,0,1.713,0V2.523a.859.859,0,0,0-.856-.856H10.239A.859.859,0,0,0,9.382,2.523Z" transform="translate(-1.667 -1.667)" fill="#ebedef"/>
</svg>
