<svg xmlns="http://www.w3.org/2000/svg" width="310" height="154" viewBox="0 0 310 154">
  <g id="placeholderbackground" transform="translate(-145 -1233)">
    <rect id="Rectangle_1085" data-name="Rectangle 1085" width="310" height="154" transform="translate(145 1233)" fill="#222831"/>
    <path id="image" d="M122.772,4.5c-111.523.012,11.089.012,0,0ZM97.663,24.587A15.065,15.065,0,1,1,82.6,39.652,15.065,15.065,0,0,1,97.663,24.587ZM22.337,114.978a10.043,10.043,0,0,1-10.043-10.043V83.71L42.058,57.253a15.083,15.083,0,0,1,20.654.6L83.1,78.192l-36.79,36.786Zm110.478-10.043a10.043,10.043,0,0,1-10.043,10.043H60.511L98.618,76.871a14.976,14.976,0,0,1,19.346-.049l14.851,12.369Z" transform="translate(227.446 1245.239)" fill="#9ca1a7" opacity="0.4"/>
  </g>
</svg>
