<svg xmlns="http://www.w3.org/2000/svg" width="100" height="100" viewBox="0 0 100 100">
  <g id="profilepicture" transform="translate(-657 -1227)">
    <circle id="Ellipse_1617" data-name="Ellipse 1617" cx="50" cy="50" r="50" transform="translate(657 1227)" fill="#2b2b2b"/>
    <path id="profilepicture-2" data-name="profilepicture" d="M-1132.687-1692.086a43.583,43.583,0,0,0-11.083-1.154,15.592,15.592,0,0,1-15.5-11.592l-2.806-10.521,2.09-.894c3.906-1.674,7.611-7.179,10.432-15.5v0a8.881,8.881,0,0,1,8.421-6.026H-1134v-21.114l3,.427a21.388,21.388,0,0,1,15.743,10.245,33.747,33.747,0,0,1,4.418,12.3,38.463,38.463,0,0,1,10.135,12.346,68.235,68.235,0,0,1,5.837,15.224,97.6,97.6,0,0,1,2.462,13.11,50.19,50.19,0,0,1-4.82,6.119v-1.013c-.066-1.352-1.721-30.92-17.573-42.181l-.929-.661-.152-1.13c-.788-5.846-3.521-15.508-12.866-18.476v20.058h-12.388a3.633,3.633,0,0,0-3.449,2.459c-2.094,6.183-5.693,13.918-11.3,17.554l1.686,6.324a10.291,10.291,0,0,0,10.266,7.7,49.747,49.747,0,0,1,14.559,1.823l1.94.527,4.9,21.792-2.35.518q-1.939.357-3.925.563Z" transform="translate(1841 3000)" fill="#aeb3b9"/>
  </g>
</svg>
